<?xml version="1.0" ?><svg height="24" viewBox="0 0 24 24" width="24" xmlns="http://www.w3.org/2000/svg"><path d="M14 22.75H10C4.57 22.75 2.25 20.43 2.25 15V9C2.25 3.57 4.57 1.25 10 1.25H14C19.43 1.25 21.75 3.57 21.75 9V15C21.75 20.43 19.43 22.75 14 22.75ZM10 2.75C5.39 2.75 3.75 4.39 3.75 9V15C3.75 19.61 5.39 21.25 10 21.25H14C18.61 21.25 20.25 19.61 20.25 15V9C20.25 4.39 18.61 2.75 14 2.75H10Z"/><path d="M15.0701 12.54C14.8901 12.54 14.7101 12.47 14.5701 12.35C13.1101 11.05 10.8901 11.05 9.43011 12.35C9.27011 12.5 9.05011 12.56 8.82011 12.53C8.60011 12.5 8.41011 12.37 8.29011 12.18L6.11011 8.68001C5.92011 8.37001 5.98011 7.97001 6.25011 7.72001C9.53011 4.81001 14.4701 4.81001 17.7501 7.72001C18.0201 7.96001 18.0801 8.37001 17.8901 8.68001L15.7101 12.18C15.5901 12.37 15.4001 12.49 15.1801 12.53C15.1401 12.53 15.1001 12.54 15.0701 12.54ZM12.0001 9.87001C13.0001 9.87001 13.9901 10.15 14.8601 10.7L16.2601 8.45001C13.7301 6.57001 10.2601 6.57001 7.73011 8.45001L9.13011 10.7C10.0101 10.14 11.0001 9.87001 12.0001 9.87001Z"/></svg>